<svg width="13" height="13" viewBox="0 0 13 13" fill="none" xmlns="http://www.w3.org/2000/svg">
<path d="M7.58329 5.22708V4.57708C7.88121 4.4507 8.1859 4.3559 8.49735 4.29271C8.80881 4.22952 9.13607 4.19792 9.47913 4.19792C9.71385 4.19792 9.94406 4.21597 10.1698 4.25208C10.3954 4.2882 10.6166 4.33333 10.8333 4.3875V4.98333C10.6166 4.90208 10.3977 4.84115 10.1765 4.80052C9.95534 4.7599 9.72288 4.73958 9.47913 4.73958C9.13607 4.73958 8.80656 4.78247 8.49058 4.86823C8.17461 4.95399 7.87218 5.07361 7.58329 5.22708ZM7.58329 8.20625V7.54271C7.88121 7.42083 8.1859 7.32943 8.49735 7.26849C8.80881 7.20755 9.13607 7.17708 9.47913 7.17708C9.71385 7.17708 9.94406 7.19514 10.1698 7.23125C10.3954 7.26736 10.6166 7.3125 10.8333 7.36667V7.9625C10.6166 7.88125 10.3977 7.82031 10.1765 7.77969C9.95534 7.73906 9.72288 7.71875 9.47913 7.71875C9.13607 7.71875 8.80656 7.75938 8.49058 7.84063C8.17461 7.92188 7.87218 8.04375 7.58329 8.20625ZM7.58329 6.71667V6.06667C7.88121 5.94028 8.1859 5.84549 8.49735 5.78229C8.80881 5.7191 9.13607 5.6875 9.47913 5.6875C9.71385 5.6875 9.94406 5.70556 10.1698 5.74167C10.3954 5.77778 10.6166 5.82292 10.8333 5.87708V6.47292C10.6166 6.39167 10.3977 6.33073 10.1765 6.29011C9.95534 6.24948 9.72288 6.22917 9.47913 6.22917C9.13607 6.22917 8.80656 6.27205 8.49058 6.35781C8.17461 6.44358 7.87218 6.5632 7.58329 6.71667ZM3.35829 8.9375C3.84187 8.9375 4.3126 8.99393 4.77046 9.10677C5.22832 9.21962 5.67843 9.38889 6.12079 9.61458V3.83229C5.71454 3.56146 5.2739 3.35156 4.79887 3.20261C4.32384 3.05365 3.84365 2.97917 3.35829 2.97917C3.01524 2.97917 2.67895 3.02205 2.34944 3.10781C2.01992 3.19358 1.68815 3.29965 1.35413 3.42604V9.30313C1.63399 9.17674 1.95222 9.0842 2.30881 9.02552C2.66541 8.96684 3.01524 8.9375 3.35829 8.9375ZM6.93329 9.61458C7.38468 9.38889 7.82704 9.21962 8.26038 9.10677C8.69371 8.99393 9.15413 8.9375 9.64163 8.9375C9.98468 8.9375 10.339 8.96458 10.7046 9.01875C11.0703 9.07292 11.384 9.14514 11.6458 9.23542V3.42604C11.3388 3.27257 11.0147 3.15972 10.6732 3.0875C10.3317 3.01528 9.98789 2.97917 9.64163 2.97917C9.15413 2.97917 8.68242 3.05365 8.22652 3.20261C7.77062 3.35156 7.33954 3.56146 6.93329 3.83229V9.61458ZM6.52704 10.8333C6.06663 10.4903 5.56558 10.2262 5.02392 10.0411C4.48225 9.85608 3.92704 9.76354 3.35829 9.76354C3.02844 9.76354 2.70449 9.80417 2.38643 9.88542C2.06837 9.96667 1.75135 10.066 1.43538 10.1833C1.22683 10.2826 1.02574 10.2691 0.832095 10.1427C0.638449 10.0163 0.541626 9.83577 0.541626 9.60104V3.33125C0.541626 3.19583 0.573223 3.0717 0.636418 2.95886C0.699612 2.84601 0.794404 2.75799 0.920793 2.69479C1.29996 2.51424 1.69445 2.38108 2.10427 2.29531C2.51407 2.20955 2.93208 2.16667 3.35829 2.16667C3.92704 2.16667 4.47999 2.2434 5.01715 2.39688C5.5543 2.55035 6.0576 2.78507 6.52704 3.10104C6.98746 2.78507 7.48173 2.55035 8.00985 2.39688C8.53798 2.2434 9.0819 2.16667 9.64163 2.16667C10.0647 2.16667 10.4797 2.20955 10.8866 2.29531C11.2934 2.38108 11.6864 2.51424 12.0656 2.69479C12.192 2.75799 12.289 2.84601 12.3567 2.95886C12.4244 3.0717 12.4583 3.19583 12.4583 3.33125V9.60104C12.4583 9.85286 12.3567 10.0445 12.1536 10.1758C11.9505 10.3072 11.7496 10.3097 11.551 10.1833C11.2441 10.0569 10.9316 9.95538 10.6135 9.87865C10.2954 9.80191 9.97147 9.76354 9.64163 9.76354C9.07288 9.76354 8.52669 9.85833 8.00308 10.0479C7.47947 10.2375 6.98746 10.4993 6.52704 10.8333Z" fill="#4B95BE"/>
</svg>
