<svg width="54" height="49" viewBox="0 0 54 49" fill="none" xmlns="http://www.w3.org/2000/svg">
<path d="M0.53595 35V32.648H2.02395C2.59995 32.648 3.11195 32.584 3.55995 32.456C4.00795 32.296 4.35995 31.992 4.61595 31.544C4.90395 31.064 5.04795 30.36 5.04795 29.432V6.29603C5.04795 5.33603 4.90395 4.63203 4.61595 4.18403C4.35995 3.73603 4.00795 3.44803 3.55995 3.32003C3.11195 3.16003 2.59995 3.08003 2.02395 3.08003H0.53595V0.728027H16.0879V3.08003H14.6C14.056 3.08003 13.56 3.14403 13.1119 3.27203C12.6639 3.40003 12.2959 3.68803 12.008 4.13603C11.752 4.55203 11.624 5.20803 11.624 6.10403V32.264H20.7439C21.5439 32.264 22.216 32.088 22.76 31.736C23.3359 31.384 23.784 30.888 24.104 30.248C24.424 29.576 24.664 28.84 24.824 28.04L25.448 24.44H28.0879L27.752 35H0.53595Z" fill="#B5DEF5"/>
<path d="M17.5359 49V46.648H19.024C19.568 46.648 20.0639 46.584 20.5119 46.456C20.9919 46.296 21.3599 45.992 21.6159 45.544C21.9039 45.064 22.0479 44.36 22.0479 43.432V20.104C22.0479 19.208 21.9039 18.552 21.6159 18.136C21.3279 17.688 20.9599 17.4 20.5119 17.272C20.0639 17.144 19.568 17.08 19.024 17.08H17.5359V14.728H33.088V17.08H31.6C31.056 17.08 30.5439 17.16 30.0639 17.32C29.6159 17.448 29.2479 17.736 28.9599 18.184C28.7039 18.632 28.576 19.336 28.576 20.296V29.752H42.256V20.296C42.256 19.336 42.112 18.632 41.824 18.184C41.568 17.736 41.216 17.448 40.768 17.32C40.32 17.16 39.808 17.08 39.232 17.08H37.7439V14.728H53.296V17.08H51.808C51.296 17.08 50.7999 17.16 50.32 17.32C49.84 17.448 49.472 17.736 49.216 18.184C48.9599 18.632 48.832 19.336 48.832 20.296V43.672C48.832 44.536 48.9599 45.192 49.216 45.64C49.504 46.056 49.8719 46.328 50.32 46.456C50.7999 46.584 51.296 46.648 51.808 46.648H53.296V49H37.7439V46.648H39.232C39.808 46.648 40.32 46.584 40.768 46.456C41.216 46.296 41.568 45.992 41.824 45.544C42.112 45.064 42.256 44.36 42.256 43.432V32.488H28.576V43.432C28.576 44.36 28.7039 45.064 28.9599 45.544C29.2479 45.992 29.6159 46.296 30.0639 46.456C30.5439 46.584 31.056 46.648 31.6 46.648H33.088V49H17.5359Z" fill="#4B95BE"/>
</svg>
